<svg version="1.1" xmlns="http://www.w3.org/2000/svg" viewBox="0 0 1229.8459557882684 582.9264468216047" width="1229.8459557882684" height="582.9264468216047" filter="invert(93%) hue-rotate(180deg)">
  <!-- svg-source:excalidraw -->
  
  <defs>
    <style class="style-fonts">
      @font-face {
        font-family: "Virgil";
        src: url("https://excalidraw.com/Virgil.woff2");
      }
      @font-face {
        font-family: "Cascadia";
        src: url("https://excalidraw.com/Cascadia.woff2");
      }
    </style>
  </defs>
  <rect x="0" y="0" width="1229.8459557882684" height="582.9264468216047" fill="#ffffff"></rect><g stroke-linecap="round" transform="translate(10 17.786611443391223) rotate(0 144.5680627259147 276.45471644078424)"><path d="M32 0 M32 0 C108.2 -1.31, 183.9 -1.61, 257.14 0 M32 0 C91.45 1.19, 152.62 1.31, 257.14 0 M257.14 0 C278.61 1.48, 290.05 12.57, 289.14 32 M257.14 0 C276.74 -2.05, 291.22 9.46, 289.14 32 M289.14 32 C288.85 135.19, 289.67 238.24, 289.14 520.91 M289.14 32 C287.51 156.51, 287.73 280.35, 289.14 520.91 M289.14 520.91 C290.17 542.18, 277.75 553.93, 257.14 552.91 M289.14 520.91 C291.37 543.06, 280.46 555.04, 257.14 552.91 M257.14 552.91 C195.39 556.32, 130.62 555.08, 32 552.91 M257.14 552.91 C203.89 554.4, 149.89 553.78, 32 552.91 M32 552.91 C9.86 551.16, 1.22 542.2, 0 520.91 M32 552.91 C12.4 553.05, -0.17 542.94, 0 520.91 M0 520.91 C-0.17 422.1, 0.92 325.14, 0 32 M0 520.91 C1.05 384.71, 1.33 249.03, 0 32 M0 32 C1.09 11.2, 11.6 0.24, 32 0 M0 32 C-1.24 10.16, 12 0.22, 32 0" stroke="#000000" stroke-width="1" fill="none"></path></g><g stroke-linecap="round" transform="translate(37.39184346385758 98.94762911408031) rotate(0 37 38.04422703313543)"><path d="M18.5 0 M18.5 0 C29.91 -0.07, 41.26 -0.92, 55.5 0 M18.5 0 C32.6 -1.06, 48.38 -0.5, 55.5 0 M55.5 0 C69.03 1.17, 75.62 6.12, 74 18.5 M55.5 0 C68.15 -0.48, 73.38 5.31, 74 18.5 M74 18.5 C75.44 30.3, 74.34 41.26, 74 57.59 M74 18.5 C74.74 27.2, 73.65 35.72, 74 57.59 M74 57.59 C72.77 71.35, 69.51 76.86, 55.5 76.09 M74 57.59 C74.54 69.11, 65.54 75.56, 55.5 76.09 M55.5 76.09 C46.06 78.02, 40.45 74.69, 18.5 76.09 M55.5 76.09 C41.39 76.59, 27.96 76.67, 18.5 76.09 M18.5 76.09 C6.87 74.43, -1.94 69.36, 0 57.59 M18.5 76.09 C4.79 74.77, -1.04 71.85, 0 57.59 M0 57.59 C1.2 48.17, -0.32 40.52, 0 18.5 M0 57.59 C-0.82 46.69, 0.25 37.02, 0 18.5 M0 18.5 C0.13 6.17, 7.67 -0.67, 18.5 0 M0 18.5 C-0.15 6.88, 7.85 -1.39, 18.5 0" stroke="#000000" stroke-width="1" fill="none"></path></g><g transform="translate(55.40704505522581 123.99185614721574) rotate(0 18 13)"><text x="18" y="18" font-family="Virgil, Segoe UI Emoji" font-size="20px" fill="#000000" text-anchor="middle" style="white-space: pre;" direction="ltr">Pl 1</text></g><g stroke-linecap="round" transform="translate(121.08914293675554 100.46939819540569) rotate(0 36.015201591368225 38.04422703313543)"><path d="M18.01 0 M18.01 0 C24.62 -1.04, 32.73 1.78, 54.02 0 M18.01 0 C26.46 -0.81, 33.42 -0.45, 54.02 0 M54.02 0 C65.37 -0.76, 71.55 4.06, 72.03 18.01 M54.02 0 C65 0.23, 72.8 6.15, 72.03 18.01 M72.03 18.01 C72.2 30.65, 73.79 40.84, 72.03 58.08 M72.03 18.01 C72.68 34.56, 72.01 49.49, 72.03 58.08 M72.03 58.08 C70.19 70.48, 67.59 75.72, 54.02 76.09 M72.03 58.08 C73.78 69.19, 64.49 78.06, 54.02 76.09 M54.02 76.09 C43.47 75.49, 29.86 77.78, 18.01 76.09 M54.02 76.09 C42.74 75.97, 29.78 75.46, 18.01 76.09 M18.01 76.09 C4.23 75.17, 0.01 70.56, 0 58.08 M18.01 76.09 C4.28 75.67, -0.39 69.96, 0 58.08 M0 58.08 C0.46 50.69, -1.57 42.79, 0 18.01 M0 58.08 C-0.56 48.58, -0.56 39.14, 0 18.01 M0 18.01 C0.64 7.68, 5.95 0.12, 18.01 0 M0 18.01 C-1.28 4.06, 6.01 1.32, 18.01 0" stroke="#000000" stroke-width="1" fill="none"></path></g><g transform="translate(134.60434452812382 125.51362522854112) rotate(0 22.5 13)"><text x="22.5" y="18" font-family="Virgil, Segoe UI Emoji" font-size="20px" fill="#000000" text-anchor="middle" style="white-space: pre;" direction="ltr">Pl 2</text></g><g stroke-linecap="round" transform="translate(204.27918604921177 101.48391091628935) rotate(0 36.015201591368225 38.04422703313543)"><path d="M18.01 0 M18.01 0 C31.39 0.66, 46.28 -1.69, 54.02 0 M18.01 0 C27.05 0.4, 35.32 -0.02, 54.02 0 M54.02 0 C65.69 -0.11, 70.19 4.24, 72.03 18.01 M54.02 0 C64.46 0.13, 73.12 3.79, 72.03 18.01 M72.03 18.01 C72.7 32.44, 71.34 47.23, 72.03 58.08 M72.03 18.01 C72.13 28.64, 71.6 38.3, 72.03 58.08 M72.03 58.08 C72.03 71.24, 66.32 77.54, 54.02 76.09 M72.03 58.08 C72.55 68.57, 63.91 78.07, 54.02 76.09 M54.02 76.09 C41.29 78.11, 29.37 77.59, 18.01 76.09 M54.02 76.09 C40 75.62, 28.13 76.03, 18.01 76.09 M18.01 76.09 C4.14 74.37, 1.94 70.16, 0 58.08 M18.01 76.09 C5.76 75.29, -1.83 72.29, 0 58.08 M0 58.08 C-0.17 46.27, -1.88 32.29, 0 18.01 M0 58.08 C0.5 47.54, -0.05 37.95, 0 18.01 M0 18.01 C0.34 6.6, 5.14 -1.22, 18.01 0 M0 18.01 C-2.11 4.03, 6.57 -1.34, 18.01 0" stroke="#000000" stroke-width="1" fill="none"></path></g><g transform="translate(233.79438764057994 126.52813794942477) rotate(0 6.5 13)"><text x="6.5" y="18" font-family="Virgil, Segoe UI Emoji" font-size="20px" fill="#000000" text-anchor="middle" style="white-space: pre;" direction="ltr">..</text></g><g stroke-linecap="round" transform="translate(38.659984364961986 187.46386401117547) rotate(0 36.015201591368225 38.04422703313543)"><path d="M18.01 0 M18.01 0 C28.95 -0.98, 39.32 1.51, 54.02 0 M18.01 0 C28.58 -0.22, 39.73 -0.76, 54.02 0 M54.02 0 C67.18 -0.25, 70.05 4.05, 72.03 18.01 M54.02 0 C68.05 1.87, 70.32 5.45, 72.03 18.01 M72.03 18.01 C70.29 33.04, 73.24 48.07, 72.03 58.08 M72.03 18.01 C71.86 29.52, 72.89 42.14, 72.03 58.08 M72.03 58.08 C72.85 69.43, 66.19 75.54, 54.02 76.09 M72.03 58.08 C70.93 72.08, 67.1 76.13, 54.02 76.09 M54.02 76.09 C38.77 77.51, 24.18 74.97, 18.01 76.09 M54.02 76.09 C46.54 76.54, 39.49 76.64, 18.01 76.09 M18.01 76.09 C5.52 75.5, 2 68.78, 0 58.08 M18.01 76.09 C5.36 77.99, -0.12 69.73, 0 58.08 M0 58.08 C0.84 42.38, 1.34 27.42, 0 18.01 M0 58.08 C-0.17 42.81, 1.13 29.41, 0 18.01 M0 18.01 C1.18 5.87, 6.7 -0.43, 18.01 0 M0 18.01 C1.3 7.49, 4.11 -1.44, 18.01 0" stroke="#000000" stroke-width="1" fill="none"></path></g><g transform="translate(68.17518595633021 212.5080910443109) rotate(0 6.5 13)"><text x="6.5" y="18" font-family="Virgil, Segoe UI Emoji" font-size="20px" fill="#000000" text-anchor="middle" style="white-space: pre;" direction="ltr">..</text></g><g stroke-linecap="round" transform="translate(122.35728383786005 188.98563309250085) rotate(0 36.015201591368225 38.04422703313543)"><path d="M18.01 0 M18.01 0 C26.14 -0.22, 38.01 0.17, 54.02 0 M18.01 0 C29.52 -0.42, 40.77 0.8, 54.02 0 M54.02 0 C65.77 -1.98, 70.07 7.76, 72.03 18.01 M54.02 0 C67.89 -1.71, 71.48 7.61, 72.03 18.01 M72.03 18.01 C72.19 31.57, 72.41 43, 72.03 58.08 M72.03 18.01 C71.29 34.11, 71.47 49.62, 72.03 58.08 M72.03 58.08 C71.38 70.25, 65.48 75.13, 54.02 76.09 M72.03 58.08 C74.03 71.15, 66.07 78.37, 54.02 76.09 M54.02 76.09 C41.22 74.84, 24.53 74.13, 18.01 76.09 M54.02 76.09 C43.43 76.72, 32.24 75.88, 18.01 76.09 M18.01 76.09 C5.42 78.08, -1.3 69.53, 0 58.08 M18.01 76.09 C7.91 75.97, -0.36 72.21, 0 58.08 M0 58.08 C0.12 47.22, 0.88 34.78, 0 18.01 M0 58.08 C-0.69 49.67, 0.22 40.13, 0 18.01 M0 18.01 C-0.13 6.7, 5.57 1.13, 18.01 0 M0 18.01 C1.49 4.11, 4.57 0.49, 18.01 0" stroke="#000000" stroke-width="1" fill="none"></path></g><g transform="translate(151.87248542922833 214.02986012563628) rotate(0 6.5 13)"><text x="6.5" y="18" font-family="Virgil, Segoe UI Emoji" font-size="20px" fill="#000000" text-anchor="middle" style="white-space: pre;" direction="ltr">..</text></g><g stroke-linecap="round" transform="translate(205.54732695031618 190.0001458133845) rotate(0 36.015201591368225 38.04422703313543)"><path d="M18.01 0 M18.01 0 C25.86 1.46, 34.29 0.77, 54.02 0 M18.01 0 C27.6 -0.72, 39.04 -0.03, 54.02 0 M54.02 0 C64.05 -1.96, 73.79 7.63, 72.03 18.01 M54.02 0 C64.32 -0.55, 73.63 6.21, 72.03 18.01 M72.03 18.01 C72.84 29.87, 71.88 42.65, 72.03 58.08 M72.03 18.01 C72.32 31.17, 72.22 45.51, 72.03 58.08 M72.03 58.08 C72.19 69.54, 65.07 77.82, 54.02 76.09 M72.03 58.08 C73.1 70.13, 68.31 78.23, 54.02 76.09 M54.02 76.09 C41.51 75.16, 29.38 76.6, 18.01 76.09 M54.02 76.09 C46.21 77.13, 36.96 76.05, 18.01 76.09 M18.01 76.09 C8 74.78, -0.56 71.74, 0 58.08 M18.01 76.09 C5.88 75.73, 2.12 70.2, 0 58.08 M0 58.08 C1.19 47.85, 0.97 34.67, 0 18.01 M0 58.08 C1.04 48.67, 0.77 39.27, 0 18.01 M0 18.01 C0.69 5.57, 7.14 1.3, 18.01 0 M0 18.01 C-1.89 4.57, 6.5 -0.24, 18.01 0" stroke="#000000" stroke-width="1" fill="none"></path></g><g transform="translate(234.06252854168446 215.04437284651993) rotate(0 7.5 13)"><text x="7.5" y="18" font-family="Virgil, Segoe UI Emoji" font-size="20px" fill="#000000" text-anchor="middle" style="white-space: pre;" direction="ltr">+</text></g><g stroke-linecap="round" transform="translate(38.406356184741185 280.5454061522468) rotate(0 118.69798834338255 51.23289240462236)"><path d="M25.62 0 M25.62 0 C75.98 1.94, 127.06 -0.4, 211.78 0 M25.62 0 C89.88 -0.69, 152.67 -1.93, 211.78 0 M211.78 0 C227.96 -1.91, 239.11 8.46, 237.4 25.62 M211.78 0 C230.22 -0.15, 238.19 8.04, 237.4 25.62 M237.4 25.62 C236.48 44.32, 237.52 63.04, 237.4 76.85 M237.4 25.62 C238.27 44.7, 237.3 61.92, 237.4 76.85 M237.4 76.85 C239.39 93.92, 228.65 101.82, 211.78 102.47 M237.4 76.85 C239.47 95, 227.43 103.51, 211.78 102.47 M211.78 102.47 C145.78 99.88, 84.83 100.12, 25.62 102.47 M211.78 102.47 C155.53 102.35, 101.66 102.79, 25.62 102.47 M25.62 102.47 C6.94 102.32, 1.28 95.45, 0 76.85 M25.62 102.47 C7.64 104.03, 2.06 92.58, 0 76.85 M0 76.85 C1.53 60.75, 2.19 45.73, 0 25.62 M0 76.85 C-0.16 57.51, -1.04 40.45, 0 25.62 M0 25.62 C-1.01 10.29, 6.85 -1.89, 25.62 0 M0 25.62 C-1.33 9.32, 8.78 1.14, 25.62 0" stroke="#000000" stroke-width="1" fill="none"></path></g><g transform="translate(78.1043445281237 318.7782985568692) rotate(0 79 13)"><text x="79" y="18" font-family="Virgil, Segoe UI Emoji" font-size="20px" fill="#000000" text-anchor="middle" style="white-space: pre;" direction="ltr">Current Playlist</text></g><g stroke-linecap="round" transform="translate(37.39184346385758 399.2433944956294) rotate(0 119.71250106426618 75.07394134538725)"><path d="M32 0 M32 0 C93.4 -0.42, 159.75 -1.58, 207.43 0 M32 0 C91 0.43, 150.15 0.09, 207.43 0 M207.43 0 C226.87 -1.16, 240.11 10.88, 239.43 32 M207.43 0 C229.89 1.19, 241.7 10.8, 239.43 32 M239.43 32 C241.04 60.71, 240.65 91.66, 239.43 118.15 M239.43 32 C239.58 61.54, 239.89 89.41, 239.43 118.15 M239.43 118.15 C240.51 138.92, 230.25 149.19, 207.43 150.15 M239.43 118.15 C240.4 139.08, 230.07 151.17, 207.43 150.15 M207.43 150.15 C148.94 149.79, 88.65 151.42, 32 150.15 M207.43 150.15 C159.85 148.51, 111.64 149.84, 32 150.15 M32 150.15 C11.6 148.99, -0.34 139.11, 0 118.15 M32 150.15 C10.53 150.43, -0.69 139.93, 0 118.15 M0 118.15 C-0.18 98.22, 0.64 79.31, 0 32 M0 118.15 C1.37 100.63, 1.13 81.81, 0 32 M0 32 C0.96 10.42, 9.26 1.42, 32 0 M0 32 C2.16 9.24, 12.01 -1.38, 32 0" stroke="#000000" stroke-width="1" fill="none"></path></g><g transform="translate(96.23358127510704 468.36087400366745) rotate(0 71 13)"><text x="0" y="18" font-family="Virgil, Segoe UI Emoji" font-size="20px" fill="#000000" text-anchor="start" style="white-space: pre;" direction="ltr">Pomodoro Unit</text></g><g stroke-linecap="round" transform="translate(240.29438764057983 41.12040402371437) rotate(0 23.333792580323063 22.31927985943946)"><path d="M27.79 -0.69 C32.54 -0.07, 38.25 4.54, 41.25 8.41 C44.25 12.29, 45.82 17.92, 45.8 22.57 C45.78 27.21, 43.99 32.61, 41.14 36.27 C38.29 39.93, 33.7 43.68, 28.68 44.54 C23.66 45.4, 15.53 43.66, 11.01 41.43 C6.49 39.19, 3.1 35.56, 1.54 31.12 C-0.01 26.68, 0.08 19.4, 1.69 14.77 C3.29 10.15, 6.69 5.81, 11.18 3.37 C15.66 0.93, 25.43 0.49, 28.61 0.14 C31.79 -0.21, 30.27 0.99, 30.27 1.29 M23.19 -0.44 C28.09 -0.73, 34.35 1.87, 38.31 4.65 C42.27 7.42, 45.82 11.36, 46.96 16.21 C48.11 21.06, 47.73 29.32, 45.18 33.74 C42.64 38.16, 36.64 41.2, 31.69 42.74 C26.74 44.28, 20.22 44.5, 15.47 42.99 C10.72 41.49, 5.64 37.44, 3.21 33.71 C0.78 29.98, 0.25 25.26, 0.9 20.6 C1.56 15.94, 3.39 9.13, 7.15 5.74 C10.91 2.35, 21.01 1.21, 23.47 0.25 C25.92 -0.7, 21.88 -0.49, 21.88 0" stroke="#000000" stroke-width="1" fill="none"></path></g><g stroke-linecap="round" transform="translate(413.83763420278893 10) rotate(0 403.0041607927397 281.46322341080236)"><path d="M32 0 M32 0 C281.65 1.71, 532.45 2.25, 774.01 0 M32 0 C305.81 -0.32, 578.64 -0.58, 774.01 0 M774.01 0 C794.96 -0.25, 805.79 8.99, 806.01 32 M774.01 0 C796.97 0.15, 808.3 11.85, 806.01 32 M806.01 32 C803.9 172.74, 803.73 314.2, 806.01 530.93 M806.01 32 C805.86 185.93, 805.71 340.27, 806.01 530.93 M806.01 530.93 C805.86 551.65, 793.79 561.75, 774.01 562.93 M806.01 530.93 C805.97 553.41, 793.52 562.14, 774.01 562.93 M774.01 562.93 C614.31 562.75, 454.5 562.16, 32 562.93 M774.01 562.93 C532.07 565.7, 290.9 565.21, 32 562.93 M32 562.93 C12.14 562.91, -1.58 551.78, 0 530.93 M32 562.93 C8.64 560.8, -1.41 551.77, 0 530.93 M0 530.93 C-1.99 429.45, -2.25 325.96, 0 32 M0 530.93 C-1.7 366.51, -1.57 202.05, 0 32 M0 32 C-1.51 10.41, 10.86 1.24, 32 0 M0 32 C-1.14 9.85, 10.48 0.72, 32 0" stroke="#000000" stroke-width="1" fill="none"></path></g><g stroke-linecap="round" transform="translate(462.37207921784915 66.53234643964686) rotate(0 36.39563801118635 37.42280852738884)"><path d="M18.2 0 M18.2 0 C31.25 -1.44, 48.33 1.91, 54.59 0 M18.2 0 C29.42 -0.13, 41.45 -0.86, 54.59 0 M54.59 0 C64.97 -1.15, 74.74 5.07, 72.79 18.2 M54.59 0 C64.85 0.19, 72.28 4.54, 72.79 18.2 M72.79 18.2 C74.59 31.12, 72.52 43.88, 72.79 56.65 M72.79 18.2 C72.6 29.81, 72.23 40.73, 72.79 56.65 M72.79 56.65 C71.69 68.57, 68.3 74.24, 54.59 74.85 M72.79 56.65 C72.26 70.01, 66.89 76.82, 54.59 74.85 M54.59 74.85 C44.98 76.03, 32.12 73.29, 18.2 74.85 M54.59 74.85 C42.67 74.06, 31.26 75.62, 18.2 74.85 M18.2 74.85 C7.37 75.47, 0.21 68.24, 0 56.65 M18.2 74.85 C7.3 74.79, -0.79 67.43, 0 56.65 M0 56.65 C0.74 41.8, -0.52 26.25, 0 18.2 M0 56.65 C0.65 47.79, 0.92 39.06, 0 18.2 M0 18.2 C0.67 8.05, 5.51 -1.66, 18.2 0 M0 18.2 C-0.92 4.01, 6.24 1.6, 18.2 0" stroke="#000000" stroke-width="1" fill="none"></path></g><g transform="translate(481.26771722903555 90.9551549670357) rotate(0 17.5 13)"><text x="17.5" y="18" font-family="Virgil, Segoe UI Emoji" font-size="19.622273756991483px" fill="#000000" text-anchor="middle" style="white-space: pre;" direction="ltr">Pl 1</text></g><g stroke-linecap="round" transform="translate(544.7022579781046 68.0292587807424) rotate(0 35.4269254059281 37.42280852738884)"><path d="M17.71 0 M17.71 0 C27.51 1.95, 34.4 1.24, 53.14 0 M17.71 0 C30.67 -0.63, 43.38 -0.62, 53.14 0 M53.14 0 C66.9 -1, 69.22 6.07, 70.85 17.71 M53.14 0 C64.44 -1.53, 71.41 5.42, 70.85 17.71 M70.85 17.71 C71.04 33.78, 71.27 49.12, 70.85 57.13 M70.85 17.71 C70.01 26.81, 70.17 37.24, 70.85 57.13 M70.85 57.13 C72.43 68.33, 64.48 75.91, 53.14 74.85 M70.85 57.13 C71.02 70.92, 64.84 75.67, 53.14 74.85 M53.14 74.85 C42.83 73.65, 35.11 74.78, 17.71 74.85 M53.14 74.85 C43.91 75.43, 33.72 74.9, 17.71 74.85 M17.71 74.85 C6.11 74.31, 1.08 68.9, 0 57.13 M17.71 74.85 C5.11 73.5, 2 70.11, 0 57.13 M0 57.13 C-0.51 42.01, -1.86 27.49, 0 17.71 M0 57.13 C0.59 46, 0.13 37.82, 0 17.71 M0 17.71 C-0.55 4.25, 5.11 -1.79, 17.71 0 M0 17.71 C0.17 7.51, 6.1 1.89, 17.71 0" stroke="#000000" stroke-width="1" fill="none"></path></g><g transform="translate(558.1291833840328 92.45206730813123) rotate(0 22 13)"><text x="22" y="18" font-family="Virgil, Segoe UI Emoji" font-size="19.620652999009486px" fill="#000000" text-anchor="middle" style="white-space: pre;" direction="ltr">Pl 2</text></g><g stroke-linecap="round" transform="translate(626.5334659579951 69.02720034147279) rotate(0 35.42692540592816 37.42280852738884)"><path d="M17.71 0 M17.71 0 C25.81 0.64, 34.46 -1.41, 53.14 0 M17.71 0 C27.96 -0.37, 40.93 -0.29, 53.14 0 M53.14 0 C63.32 0.16, 70.41 4.58, 70.85 17.71 M53.14 0 C65.5 -0.49, 72.89 8.07, 70.85 17.71 M70.85 17.71 C70.87 31.23, 69.8 42.5, 70.85 57.13 M70.85 17.71 C70.02 29.36, 71.36 40.91, 70.85 57.13 M70.85 57.13 C70.39 70.01, 65.09 76.57, 53.14 74.85 M70.85 57.13 C70.75 69.77, 64.11 76.16, 53.14 74.85 M53.14 74.85 C40.8 74.3, 26.87 74.89, 17.71 74.85 M53.14 74.85 C45.73 75.45, 37.12 74.87, 17.71 74.85 M17.71 74.85 C6.98 74.8, -0.69 67.77, 0 57.13 M17.71 74.85 C7.91 76.02, 1.55 70.01, 0 57.13 M0 57.13 C-1.61 44.56, -0.79 34.39, 0 17.71 M0 57.13 C0.03 48.45, -0.59 36.96, 0 17.71 M0 17.71 C-0.8 4.12, 6.06 1.39, 17.71 0 M0 17.71 C0.2 7.79, 7.7 -0.09, 17.71 0" stroke="#000000" stroke-width="1" fill="none"></path></g><g transform="translate(655.4603913639232 93.45000886886163) rotate(0 6.5 13)"><text x="6.5" y="18" font-family="Virgil, Segoe UI Emoji" font-size="19.620652999009486px" fill="#000000" text-anchor="middle" style="white-space: pre;" direction="ltr">..</text></g><g stroke-linecap="round" transform="translate(463.6195061687619 153.6027476133716) rotate(0 35.42692540592816 37.42280852738884)"><path d="M17.71 0 M17.71 0 C32.76 -1.28, 45.11 -0.78, 53.14 0 M17.71 0 C27.24 -0.3, 34.01 0.29, 53.14 0 M53.14 0 C64.51 -1.33, 71.34 5.48, 70.85 17.71 M53.14 0 C66.98 2.16, 71.38 5.69, 70.85 17.71 M70.85 17.71 C69.84 30.36, 70.82 42.92, 70.85 57.13 M70.85 17.71 C71.42 26.39, 70.4 36.2, 70.85 57.13 M70.85 57.13 C70.99 70.66, 64.86 75.56, 53.14 74.85 M70.85 57.13 C70.01 70.25, 66.47 73.73, 53.14 74.85 M53.14 74.85 C44.7 75.09, 35.48 76.4, 17.71 74.85 M53.14 74.85 C39.66 74.69, 26.5 74.93, 17.71 74.85 M17.71 74.85 C5.22 73.67, 1.74 69.96, 0 57.13 M17.71 74.85 C7.45 75.92, 0.04 68.57, 0 57.13 M0 57.13 C-0.52 47.6, -0.76 37.58, 0 17.71 M0 57.13 C-0.41 48.33, -0.53 40.29, 0 17.71 M0 17.71 C0.15 7.3, 6.08 1.64, 17.71 0 M0 17.71 C1.79 5.82, 7.93 1.93, 17.71 0" stroke="#000000" stroke-width="1" fill="none"></path></g><g transform="translate(492.5464315746901 178.02555614076044) rotate(0 6.5 13)"><text x="6.5" y="18" font-family="Virgil, Segoe UI Emoji" font-size="19.620652999009486px" fill="#000000" text-anchor="middle" style="white-space: pre;" direction="ltr">..</text></g><g stroke-linecap="round" transform="translate(545.9496849290174 155.09965995446714) rotate(0 35.4269254059281 37.42280852738884)"><path d="M17.71 0 M17.71 0 C30.28 -0.42, 41.12 -1.55, 53.14 0 M17.71 0 C25.49 0.26, 34.67 -0.49, 53.14 0 M53.14 0 C65.43 -0.42, 72.62 7.79, 70.85 17.71 M53.14 0 C65.48 -0.22, 71.72 5.96, 70.85 17.71 M70.85 17.71 C70.61 29.66, 69.21 43.36, 70.85 57.13 M70.85 17.71 C70.93 29.65, 71.23 41.39, 70.85 57.13 M70.85 57.13 C70.76 69.66, 64.22 75.99, 53.14 74.85 M70.85 57.13 C72.37 67.82, 63.31 75.57, 53.14 74.85 M53.14 74.85 C41.59 76.51, 34.61 76.2, 17.71 74.85 M53.14 74.85 C41.95 74.73, 29.33 74.16, 17.71 74.85 M17.71 74.85 C7.65 75.87, 1.35 69.87, 0 57.13 M17.71 74.85 C5.94 74.47, -0.73 67.01, 0 57.13 M0 57.13 C-0.92 48.24, -1.79 36.85, 0 17.71 M0 57.13 C-0.29 40.5, 0.18 26.36, 0 17.71 M0 17.71 C0.17 7.54, 7.46 -0.07, 17.71 0 M0 17.71 C2.03 7.84, 6.09 -2.25, 17.71 0" stroke="#000000" stroke-width="1" fill="none"></path></g><g transform="translate(574.8766103349456 179.52246848185598) rotate(0 6.5 13)"><text x="6.5" y="18" font-family="Virgil, Segoe UI Emoji" font-size="19.620652999009486px" fill="#000000" text-anchor="middle" style="white-space: pre;" direction="ltr">..</text></g><g stroke-linecap="round" transform="translate(627.7808929089078 156.0976015151976) rotate(0 35.42692540592816 37.42280852738884)"><path d="M17.71 0 M17.71 0 C25.19 -1.64, 33.85 2.06, 53.14 0 M17.71 0 C26.35 -0.69, 35.67 -0.24, 53.14 0 M53.14 0 C66.72 1.88, 71.31 5.72, 70.85 17.71 M53.14 0 C65.82 0.06, 71.76 4.73, 70.85 17.71 M70.85 17.71 C69.4 27.11, 70.63 40.27, 70.85 57.13 M70.85 17.71 C70.83 29.2, 70.72 39.33, 70.85 57.13 M70.85 57.13 C70.12 70.08, 66.27 73.87, 53.14 74.85 M70.85 57.13 C69.21 69.67, 64.61 74.46, 53.14 74.85 M53.14 74.85 C43.66 76.43, 31.46 75.34, 17.71 74.85 M53.14 74.85 C43.12 74.25, 34.66 75.35, 17.71 74.85 M17.71 74.85 C7.25 75.78, 0.03 68.62, 0 57.13 M17.71 74.85 C5.17 72.92, -0.79 67.96, 0 57.13 M0 57.13 C-1.74 43.94, 2.2 28.84, 0 17.71 M0 57.13 C0.23 49.27, 0.24 40.83, 0 17.71 M0 17.71 C1.56 5.83, 7.67 1.68, 17.71 0 M0 17.71 C0.19 3.65, 6.8 -1.01, 17.71 0" stroke="#000000" stroke-width="1" fill="none"></path></g><g transform="translate(656.207818314836 180.52041004258643) rotate(0 7 13)"><text x="7" y="18" font-family="Virgil, Segoe UI Emoji" font-size="19.620652999009486px" fill="#000000" text-anchor="middle" style="white-space: pre;" direction="ltr">+</text></g><g stroke-linecap="round" transform="translate(440.18282493415353 354.294296697075) rotate(0 143 87.5)"><path d="M32 0 M32 0 C90.75 3.36, 150.62 0.27, 254 0 M32 0 C100.62 1.09, 169.59 2.09, 254 0 M254 0 C275.79 -0.19, 286.76 10.71, 286 32 M254 0 C276.24 -1.17, 285.22 10.62, 286 32 M286 32 C284.99 58.97, 284.59 82.32, 286 143 M286 32 C286.03 71.58, 285.71 111.02, 286 143 M286 143 C287.32 163.36, 273.91 175.63, 254 175 M286 143 C285.66 163.95, 275.67 173.33, 254 175 M254 175 C170.1 176.43, 84.66 177.18, 32 175 M254 175 C188.66 174.32, 122.4 174.28, 32 175 M32 175 C10.7 174.68, -0.64 162.65, 0 143 M32 175 C9.88 174.02, 1.19 163.08, 0 143 M0 143 C3.07 100.36, -0.57 58.03, 0 32 M0 143 C0 120.44, 0.7 96.19, 0 32 M0 32 C1.77 12.35, 10.83 -1.96, 32 0 M0 32 C0.9 9.66, 9.6 -0.89, 32 0" stroke="#000000" stroke-width="1" fill="none"></path></g><g transform="translate(477.18282493415353 424.294296697075) rotate(0 106 17.5)"><text x="106" y="24" font-family="Virgil, Segoe UI Emoji" font-size="26.906229699420386px" fill="#000000" text-anchor="middle" style="white-space: pre;" direction="ltr">Current Playlist</text></g><g stroke-linecap="round" transform="translate(464.95740377644523 241.4926964196663) rotate(0 35.42692540592816 37.42280852738884)"><path d="M17.71 0 M17.71 0 C26.11 -1.22, 32.91 0.59, 53.14 0 M17.71 0 C29.62 0.21, 42.95 -0.76, 53.14 0 M53.14 0 C64.85 -0.31, 70.68 6.05, 70.85 17.71 M53.14 0 C64.64 -2.08, 73.05 6.77, 70.85 17.71 M70.85 17.71 C69.35 29.3, 70.78 40.16, 70.85 57.13 M70.85 17.71 C70.73 27.75, 70.58 39.03, 70.85 57.13 M70.85 57.13 C70.27 70.71, 65.97 73.48, 53.14 74.85 M70.85 57.13 C71.61 67.35, 67.15 76.5, 53.14 74.85 M53.14 74.85 C42.09 76.37, 29.53 72.95, 17.71 74.85 M53.14 74.85 C43.41 73.6, 35.09 74.07, 17.71 74.85 M17.71 74.85 C6.77 74.19, -0.07 69.81, 0 57.13 M17.71 74.85 C8.02 74.42, -1.44 69.99, 0 57.13 M0 57.13 C-1.97 44.26, -0.65 28.37, 0 17.71 M0 57.13 C-0.21 46.77, -0.94 37.21, 0 17.71 M0 17.71 C-1.45 5.87, 6.02 -1.74, 17.71 0 M0 17.71 C-0.18 6.8, 7.9 -1.05, 17.71 0" stroke="#000000" stroke-width="1" fill="none"></path></g><g transform="translate(493.8843291823734 265.915504947055) rotate(0 6.5 13)"><text x="6.5" y="18" font-family="Virgil, Segoe UI Emoji" font-size="19.620652999009486px" fill="#000000" text-anchor="middle" style="white-space: pre;" direction="ltr">..</text></g><g stroke-linecap="round" transform="translate(547.2875825367009 242.98960876076166) rotate(0 35.42692540592816 37.42280852738884)"><path d="M17.71 0 M17.71 0 C27.49 0.73, 38.24 -0.14, 53.14 0 M17.71 0 C28.61 -0.79, 40.03 -0.25, 53.14 0 M53.14 0 C64.77 0.14, 70.59 4.1, 70.85 17.71 M53.14 0 C67.15 0.87, 70.37 3.77, 70.85 17.71 M70.85 17.71 C70.92 26.4, 70.13 33.5, 70.85 57.13 M70.85 17.71 C70.71 29.12, 70.56 42.19, 70.85 57.13 M70.85 57.13 C71.87 67.57, 65.61 73.46, 53.14 74.85 M70.85 57.13 C73.05 70.59, 66.2 75.38, 53.14 74.85 M53.14 74.85 C43.23 73.12, 29.65 76.92, 17.71 74.85 M53.14 74.85 C45.97 73.98, 37.54 74.17, 17.71 74.85 M17.71 74.85 C5.84 75.71, 1.84 68.57, 0 57.13 M17.71 74.85 C4.47 75.89, 1.47 71.11, 0 57.13 M0 57.13 C0.04 45.71, -0.41 34.53, 0 17.71 M0 57.13 C-0.85 43.44, -0.65 28, 0 17.71 M0 17.71 C0.11 4.17, 5.75 0.78, 17.71 0 M0 17.71 C1.99 4.85, 8.16 -1.24, 17.71 0" stroke="#000000" stroke-width="1" fill="none"></path></g><g transform="translate(576.2145079426291 267.4124172881506) rotate(0 6.5 13)"><text x="6.5" y="18" font-family="Virgil, Segoe UI Emoji" font-size="19.620652999009486px" fill="#000000" text-anchor="middle" style="white-space: pre;" direction="ltr">..</text></g><g stroke-linecap="round" transform="translate(629.1187905165914 243.98755032149228) rotate(0 35.42692540592816 37.42280852738884)"><path d="M17.71 0 M17.71 0 C27.22 -0.46, 34.63 -1.79, 53.14 0 M17.71 0 C29.23 0.1, 40.74 0.32, 53.14 0 M53.14 0 C64.68 -1.8, 72.76 6.66, 70.85 17.71 M53.14 0 C64.46 -2.13, 68.75 4.59, 70.85 17.71 M70.85 17.71 C70.42 30.06, 70.9 43.73, 70.85 57.13 M70.85 17.71 C70.5 27.22, 71.31 34.27, 70.85 57.13 M70.85 57.13 C71.51 67.56, 66.86 76.28, 53.14 74.85 M70.85 57.13 C72.11 69.48, 65.46 76.58, 53.14 74.85 M53.14 74.85 C39.29 76.32, 25.3 73.94, 17.71 74.85 M53.14 74.85 C46.43 74.33, 38.82 75.09, 17.71 74.85 M17.71 74.85 C7.75 74.48, -1.25 69.85, 0 57.13 M17.71 74.85 C7.37 77.02, -0.28 67.11, 0 57.13 M0 57.13 C-0.67 42.49, 1.44 27.3, 0 17.71 M0 57.13 C-0.36 45.16, 0.42 32.34, 0 17.71 M0 17.71 C-0.16 6.68, 7.64 -0.92, 17.71 0 M0 17.71 C2.26 4.66, 3.82 -1.22, 17.71 0" stroke="#000000" stroke-width="1" fill="none"></path></g><g transform="translate(657.5457159225195 268.410358848881) rotate(0 7 13)"><text x="7" y="18" font-family="Virgil, Segoe UI Emoji" font-size="19.620652999009486px" fill="#000000" text-anchor="middle" style="white-space: pre;" direction="ltr">+</text></g><g stroke-linecap="round" transform="translate(765.8756588260508 209.54493290492252) rotate(0 199.5939277095107 162.81371990063286)"><path d="M32 0 M32 0 C120.36 1.21, 207.05 1.09, 367.19 0 M32 0 C142.52 -0.92, 253.53 -1.84, 367.19 0 M367.19 0 C387.5 1.46, 399.78 9.29, 399.19 32 M367.19 0 C387.8 -0.44, 398.15 11.31, 399.19 32 M399.19 32 C399.37 103.69, 400.05 175.31, 399.19 293.63 M399.19 32 C398.67 88.47, 398.3 145.06, 399.19 293.63 M399.19 293.63 C400.05 313.46, 388.41 326.72, 367.19 325.63 M399.19 293.63 C397.54 314.01, 387.32 323.82, 367.19 325.63 M367.19 325.63 C244.81 324.26, 123.79 324.6, 32 325.63 M367.19 325.63 C295.1 324.78, 222.4 325.77, 32 325.63 M32 325.63 C11.85 326.51, -1.14 315.19, 0 293.63 M32 325.63 C10.38 325.89, 1.14 314.28, 0 293.63 M0 293.63 C-0.56 214.16, 1.11 133.62, 0 32 M0 293.63 C1.82 207.04, 0.43 120.15, 0 32 M0 32 C1.83 11.75, 11.41 0, 32 0 M0 32 C-0.22 8.39, 10.61 1.99, 32 0" stroke="#000000" stroke-width="1" fill="none"></path></g><g transform="translate(902.806433638907 375.0515414706767) rotate(0 71 13)"><text x="0" y="18" font-family="Virgil, Segoe UI Emoji" font-size="20px" fill="#000000" text-anchor="start" style="white-space: pre;" direction="ltr">Pomodoro Unit</text></g><g stroke-linecap="round" transform="translate(764.8948532844809 63.40490721098104) rotate(0 197.63231662637043 54.43470755713929)"><path d="M27.22 0 M27.22 0 C121.15 -1.07, 214.11 -2.42, 368.05 0 M27.22 0 C100.66 0.28, 174.71 0.56, 368.05 0 M368.05 0 C386.33 1.73, 396.69 7.96, 395.26 27.22 M368.05 0 C386.15 -0.64, 393.88 9.16, 395.26 27.22 M395.26 27.22 C395.85 42.17, 393.71 55.6, 395.26 81.65 M395.26 27.22 C395.68 40.37, 395.34 51.04, 395.26 81.65 M395.26 81.65 C393.27 97.97, 384.67 108.92, 368.05 108.87 M395.26 81.65 C393.84 99.22, 387.32 106.59, 368.05 108.87 M368.05 108.87 C270.98 109.03, 173.61 109.55, 27.22 108.87 M368.05 108.87 C271.69 109.36, 175.27 109.86, 27.22 108.87 M27.22 108.87 C8.11 107.97, -1.72 99.31, 0 81.65 M27.22 108.87 C10.53 109.95, 2.21 100.91, 0 81.65 M0 81.65 C1.69 64.73, -1.15 43.3, 0 27.22 M0 81.65 C0.11 68.71, 0.49 56.74, 0 27.22 M0 27.22 C0.9 7.87, 7.7 0.33, 27.22 0 M0 27.22 C1.88 8.32, 9.52 0.86, 27.22 0" stroke="#000000" stroke-width="1" fill="none"></path></g></svg>